<svg xmlns="http://www.w3.org/2000/svg" xmlns:xlink="http://www.w3.org/1999/xlink" width="1080" zoomAndPan="magnify" viewBox="0 0 810 809.999993" height="1080" preserveAspectRatio="xMidYMid meet" version="1.0"><defs><clipPath id="9a77f5a572"><path d="M 86 85.640625 L 724.640625 85.640625 L 724.640625 724.640625 L 86 724.640625 Z M 86 85.640625 " clip-rule="nonzero"/></clipPath></defs><rect x="-81" width="972" fill="transparent" y="-80.999999" height="971.999992" fill-opacity="1"/><rect x="-81" width="972" fill="transparent" y="-80.999999" height="971.999992" fill-opacity="1"/><g clip-path="url(#9a77f5a572)"><path fill="#ffff" d="M 671.257812 85.640625 L 139.34375 85.640625 C 109.933594 85.640625 86.277344 109.613281 86.277344 138.703125 L 86.277344 671.578125 C 86.277344 700.984375 110.253906 724.640625 139.34375 724.640625 L 670.9375 724.640625 C 700.34375 724.640625 724 700.664062 724 671.578125 L 724 138.703125 C 724.320312 109.613281 700.664062 85.640625 671.257812 85.640625 Z M 275.199219 612.757812 L 180.898438 612.757812 L 180.898438 329.539062 L 275.199219 329.539062 Z M 227.886719 295.335938 C 198.160156 295.335938 174.183594 271.363281 174.183594 241.632812 C 174.183594 211.90625 198.160156 187.929688 227.886719 187.929688 C 257.617188 187.929688 281.589844 211.90625 281.589844 241.632812 C 281.589844 271.363281 257.617188 295.335938 227.886719 295.335938 Z M 630.019531 612.757812 L 535.402344 612.757812 L 533.164062 444.617188 C 533.164062 444.617188 535.402344 399.867188 486.492188 400.183594 C 437.585938 400.503906 430.871094 444.617188 430.871094 444.617188 L 430.871094 612.757812 L 335.613281 612.757812 L 335.613281 329.539062 L 427.035156 329.539062 L 427.035156 368.539062 C 427.035156 368.539062 430.871094 355.753906 451.96875 340.726562 C 473.066406 325.703125 507.910156 322.507812 522.933594 323.148438 C 537.957031 323.785156 558.417969 321.230469 592.621094 344.882812 C 629.382812 370.136719 630.339844 436.304688 630.339844 436.304688 Z M 630.019531 612.757812 " fill-opacity="1" fill-rule="nonzero"/></g></svg>